<svg xmlns="http://www.w3.org/2000/svg" width="1600" height="1000" viewBox="0 0 1600 1000"><rect width="1600" height="1000" fill="white"/><g stroke="#111" fill="none" stroke-width="2"><path d="M100 640 L100 300 L650 210 L700 300 L700 640 Z" stroke-width="4"/><line x1="100" y1="590" x2="700" y2="590" stroke-width="5"/><line x1="150" y1="300" x2="150" y2="590"/><line x1="250" y1="280" x2="250" y2="590"/><line x1="350" y1="265" x2="350" y2="590"/><line x1="450" y1="250" x2="450" y2="590"/><line x1="550" y1="235" x2="550" y2="590"/><path d="M820 640 L820 300 L1320 220 L1370 300 L1370 640 Z" stroke-width="4"/><line x1="820" y1="590" x2="1370" y2="590" stroke-width="5"/><line x1="900" y1="287" x2="900" y2="590"/><line x1="1040" y1="265" x2="1040" y2="590"/><line x1="1180" y1="243" x2="1180" y2="590"/><text x="100" y="700" font-family="Arial" font-size="14" font-weight="700" text-anchor="start" fill="#111" stroke="none">1  LONGITUDINAL BUILDING SECTION</text><text x="100" y="720" font-family="Arial" font-size="8" font-weight="400" text-anchor="start" fill="#111" stroke="none">SCALE: 1/4" = 1'-0"</text><text x="820" y="700" font-family="Arial" font-size="14" font-weight="700" text-anchor="start" fill="#111" stroke="none">2  TRANSVERSE BUILDING SECTION</text><text x="820" y="720" font-family="Arial" font-size="8" font-weight="400" text-anchor="start" fill="#111" stroke="none">SCALE: 1/4" = 1'-0"</text><text x="615" y="205" font-family="Arial" font-size="10" font-weight="700" text-anchor="start" fill="#111" stroke="none">7/A501</text><text x="1285" y="215" font-family="Arial" font-size="10" font-weight="700" text-anchor="start" fill="#111" stroke="none">7/A501</text><text x="105" y="580" font-family="Arial" font-size="10" font-weight="700" text-anchor="start" fill="#111" stroke="none">3/A501</text></g><g font-family="Arial" fill="#111"><line x1="1435" y1="0" x2="1435" y2="1000" stroke="#111" stroke-width="2"/><g transform="translate(1460,32)"><rect width="95" height="95" fill="#0b1f35"/><text x="47.5" y="60" text-anchor="middle" font-family="Arial" font-size="34" font-weight="700" fill="white">DU</text><text x="47.5" y="82" text-anchor="middle" font-family="Arial" font-size="10" fill="white">DRAWUP</text></g><text x="1455" y="155" font-size="11" font-weight="700">DRAWUP</text><text x="1455" y="172" font-size="8">DETAIL + DOCUMENTATION SYSTEM</text><line x1="1450" y1="195" x2="1580" y2="195" stroke="#111"/><text x="1455" y="225" font-size="8">PROJECT</text><text x="1455" y="245" font-size="12" font-weight="700">DRAWUP ATHLETIC</text><text x="1455" y="261" font-size="12" font-weight="700">STORAGE BLDG EXAMPLE</text><text x="1455" y="300" font-size="8">STATUS</text><text x="1455" y="318" font-size="10">LEARNING / TYPICAL</text><text x="1455" y="345" font-size="8">NOT FOR CONSTRUCTION</text><line x1="1450" y1="790" x2="1580" y2="790" stroke="#111"/><text x="1455" y="825" font-size="8">SHEET TITLE</text><text x="1455" y="847" font-size="11" font-weight="700">BUILDING SECTIONS</text><text x="1455" y="930" font-size="8">SHEET NO.</text><text x="1455" y="970" font-size="30" font-weight="700">A301</text></g><text x="35" y="975" font-family="Arial" font-size="8" fill="#555">DRAWUP TYPICAL LEARNING CONTENT — VERIFY AND ADAPT TO PROJECT-SPECIFIC CONDITIONS, CODES, LOADS AND JURISDICTION.</text></svg>