<svg xmlns="http://www.w3.org/2000/svg" width="1600" height="1000" viewBox="0 0 1600 1000"><rect width="1600" height="1000" fill="white"/><g stroke="#111" fill="none" stroke-width="2"><rect x="60" y="80" width="720" height="250"/><line x1="60" y1="120" x2="780" y2="120"/><line x1="140" y1="80" x2="140" y2="330"/><line x1="300" y1="80" x2="300" y2="330"/><line x1="460" y1="80" x2="460" y2="330"/><line x1="620" y1="80" x2="620" y2="330"/><line x1="60" y1="160" x2="780" y2="160"/><line x1="60" y1="200" x2="780" y2="200"/><line x1="60" y1="240" x2="780" y2="240"/><line x1="60" y1="280" x2="780" y2="280"/><text x="60" y="65" font-family="Arial" font-size="14" font-weight="700" text-anchor="start" fill="#111" stroke="none">DOOR SCHEDULE</text><text x="80" y="108" font-family="Arial" font-size="8" font-weight="700" text-anchor="start" fill="#111" stroke="none">MARK</text><text x="170" y="108" font-family="Arial" font-size="8" font-weight="700" text-anchor="start" fill="#111" stroke="none">TYPE</text><text x="330" y="108" font-family="Arial" font-size="8" font-weight="700" text-anchor="start" fill="#111" stroke="none">SIZE</text><text x="490" y="108" font-family="Arial" font-size="8" font-weight="700" text-anchor="start" fill="#111" stroke="none">FRAME</text><text x="650" y="108" font-family="Arial" font-size="8" font-weight="700" text-anchor="start" fill="#111" stroke="none">REMARKS</text><rect x="850" y="100" width="120" height="210"/><path d="M860 290 L960 120"/><text x="910" y="340" font-family="Arial" font-size="11" font-weight="700" text-anchor="middle" fill="#111" stroke="none">D1</text><rect x="1040" y="100" width="120" height="210"/><path d="M1050 290 L1150 120"/><text x="1100" y="340" font-family="Arial" font-size="11" font-weight="700" text-anchor="middle" fill="#111" stroke="none">D2</text><rect x="1230" y="100" width="120" height="210"/><path d="M1240 290 L1340 120"/><text x="1290" y="340" font-family="Arial" font-size="11" font-weight="700" text-anchor="middle" fill="#111" stroke="none">D3</text><text x="850" y="65" font-family="Arial" font-size="14" font-weight="700" text-anchor="start" fill="#111" stroke="none">DOOR TYPES</text><rect x="850" y="470" width="120" height="210"/><rect x="870" y="490" width="80" height="170"/><text x="910" y="710" font-family="Arial" font-size="11" font-weight="700" text-anchor="middle" fill="#111" stroke="none">F1</text><rect x="1040" y="470" width="120" height="210"/><rect x="1060" y="490" width="80" height="170"/><text x="1100" y="710" font-family="Arial" font-size="11" font-weight="700" text-anchor="middle" fill="#111" stroke="none">F2</text><rect x="1230" y="470" width="120" height="210"/><rect x="1250" y="490" width="80" height="170"/><text x="1290" y="710" font-family="Arial" font-size="11" font-weight="700" text-anchor="middle" fill="#111" stroke="none">F3</text><text x="850" y="435" font-family="Arial" font-size="14" font-weight="700" text-anchor="start" fill="#111" stroke="none">FRAME TYPES</text><rect x="60" y="430" width="650" height="300"/><line x1="60" y1="480" x2="710" y2="480"/><line x1="160" y1="430" x2="160" y2="730"/><line x1="360" y1="430" x2="360" y2="730"/><line x1="540" y1="430" x2="540" y2="730"/><text x="60" y="410" font-family="Arial" font-size="14" font-weight="700" text-anchor="start" fill="#111" stroke="none">WINDOW / OPENING SCHEDULE</text></g><g font-family="Arial" fill="#111"><line x1="1435" y1="0" x2="1435" y2="1000" stroke="#111" stroke-width="2"/><g transform="translate(1460,32)"><rect width="95" height="95" fill="#0b1f35"/><text x="47.5" y="60" text-anchor="middle" font-family="Arial" font-size="34" font-weight="700" fill="white">DU</text><text x="47.5" y="82" text-anchor="middle" font-family="Arial" font-size="10" fill="white">DRAWUP</text></g><text x="1455" y="155" font-size="11" font-weight="700">DRAWUP</text><text x="1455" y="172" font-size="8">DETAIL + DOCUMENTATION SYSTEM</text><line x1="1450" y1="195" x2="1580" y2="195" stroke="#111"/><text x="1455" y="225" font-size="8">PROJECT</text><text x="1455" y="245" font-size="12" font-weight="700">DRAWUP ATHLETIC</text><text x="1455" y="261" font-size="12" font-weight="700">STORAGE BLDG EXAMPLE</text><text x="1455" y="300" font-size="8">STATUS</text><text x="1455" y="318" font-size="10">LEARNING / TYPICAL</text><text x="1455" y="345" font-size="8">NOT FOR CONSTRUCTION</text><line x1="1450" y1="790" x2="1580" y2="790" stroke="#111"/><text x="1455" y="825" font-size="8">SHEET TITLE</text><text x="1455" y="847" font-size="11" font-weight="700">OPENINGS + SCHEDULES</text><text x="1455" y="930" font-size="8">SHEET NO.</text><text x="1455" y="970" font-size="30" font-weight="700">A800</text></g><text x="35" y="975" font-family="Arial" font-size="8" fill="#555">DRAWUP TYPICAL LEARNING CONTENT — VERIFY AND ADAPT TO PROJECT-SPECIFIC CONDITIONS, CODES, LOADS AND JURISDICTION.</text></svg>