<svg xmlns="http://www.w3.org/2000/svg" viewBox="0 0 1200 820" width="1200" height="820"><defs><radialGradient id="bg"><stop stop-color="#123d58"/><stop offset="1" stop-color="#071522"/></radialGradient><filter id="glow"><feGaussianBlur stdDeviation="4" result="b"/><feMerge><feMergeNode in="b"/><feMergeNode in="SourceGraphic"/></feMerge></filter></defs><rect width="1200" height="820" fill="url(#bg)"/><g opacity=".13" stroke="#4cdfff" stroke-width=".6"><line x1="0" y1="0" x2="0" y2="820" stroke="#82f7ff" stroke-width="1.4" /><line x1="50" y1="0" x2="50" y2="820" stroke="#82f7ff" stroke-width="1.4" /><line x1="100" y1="0" x2="100" y2="820" stroke="#82f7ff" stroke-width="1.4" /><line x1="150" y1="0" x2="150" y2="820" stroke="#82f7ff" stroke-width="1.4" /><line x1="200" y1="0" x2="200" y2="820" stroke="#82f7ff" stroke-width="1.4" /><line x1="250" y1="0" x2="250" y2="820" stroke="#82f7ff" stroke-width="1.4" /><line x1="300" y1="0" x2="300" y2="820" stroke="#82f7ff" stroke-width="1.4" /><line x1="350" y1="0" x2="350" y2="820" stroke="#82f7ff" stroke-width="1.4" /><line x1="400" y1="0" x2="400" y2="820" stroke="#82f7ff" stroke-width="1.4" /><line x1="450" y1="0" x2="450" y2="820" stroke="#82f7ff" stroke-width="1.4" /><line x1="500" y1="0" x2="500" y2="820" stroke="#82f7ff" stroke-width="1.4" /><line x1="550" y1="0" x2="550" y2="820" stroke="#82f7ff" stroke-width="1.4" /><line x1="600" y1="0" x2="600" y2="820" stroke="#82f7ff" stroke-width="1.4" /><line x1="650" y1="0" x2="650" y2="820" stroke="#82f7ff" stroke-width="1.4" /><line x1="700" y1="0" x2="700" y2="820" stroke="#82f7ff" stroke-width="1.4" /><line x1="750" y1="0" x2="750" y2="820" stroke="#82f7ff" stroke-width="1.4" /><line x1="800" y1="0" x2="800" y2="820" stroke="#82f7ff" stroke-width="1.4" /><line x1="850" y1="0" x2="850" y2="820" stroke="#82f7ff" stroke-width="1.4" /><line x1="900" y1="0" x2="900" y2="820" stroke="#82f7ff" stroke-width="1.4" /><line x1="950" y1="0" x2="950" y2="820" stroke="#82f7ff" stroke-width="1.4" /><line x1="1000" y1="0" x2="1000" y2="820" stroke="#82f7ff" stroke-width="1.4" /><line x1="1050" y1="0" x2="1050" y2="820" stroke="#82f7ff" stroke-width="1.4" /><line x1="1100" y1="0" x2="1100" y2="820" stroke="#82f7ff" stroke-width="1.4" /><line x1="1150" y1="0" x2="1150" y2="820" stroke="#82f7ff" stroke-width="1.4" /><line x1="1200" y1="0" x2="1200" y2="820" stroke="#82f7ff" stroke-width="1.4" /><line x1="0" y1="0" x2="1200" y2="0" stroke="#82f7ff" stroke-width="1.4" /><line x1="0" y1="50" x2="1200" y2="50" stroke="#82f7ff" stroke-width="1.4" /><line x1="0" y1="100" x2="1200" y2="100" stroke="#82f7ff" stroke-width="1.4" /><line x1="0" y1="150" x2="1200" y2="150" stroke="#82f7ff" stroke-width="1.4" /><line x1="0" y1="200" x2="1200" y2="200" stroke="#82f7ff" stroke-width="1.4" /><line x1="0" y1="250" x2="1200" y2="250" stroke="#82f7ff" stroke-width="1.4" /><line x1="0" y1="300" x2="1200" y2="300" stroke="#82f7ff" stroke-width="1.4" /><line x1="0" y1="350" x2="1200" y2="350" stroke="#82f7ff" stroke-width="1.4" /><line x1="0" y1="400" x2="1200" y2="400" stroke="#82f7ff" stroke-width="1.4" /><line x1="0" y1="450" x2="1200" y2="450" stroke="#82f7ff" stroke-width="1.4" /><line x1="0" y1="500" x2="1200" y2="500" stroke="#82f7ff" stroke-width="1.4" /><line x1="0" y1="550" x2="1200" y2="550" stroke="#82f7ff" stroke-width="1.4" /><line x1="0" y1="600" x2="1200" y2="600" stroke="#82f7ff" stroke-width="1.4" /><line x1="0" y1="650" x2="1200" y2="650" stroke="#82f7ff" stroke-width="1.4" /><line x1="0" y1="700" x2="1200" y2="700" stroke="#82f7ff" stroke-width="1.4" /><line x1="0" y1="750" x2="1200" y2="750" stroke="#82f7ff" stroke-width="1.4" /><line x1="0" y1="800" x2="1200" y2="800" stroke="#82f7ff" stroke-width="1.4" /></g><text x="54" y="62" fill="#80efff" font-family="Arial" font-size="24" font-weight="bold">DRAWUP 3D / RF-02</text><text x="54" y="98" fill="#f0fbff" font-family="Arial" font-size="23">Eave + Gutter at Asphalt Shingle Roof</text><text x="54" y="129" fill="#83adbe" font-family="Arial" font-size="16">ILLUSTRATIVE AXONOMETRIC · NOT TO SCALE · NOT FOR CONSTRUCTION</text><g filter="url(#glow)" opacity=".16"><polygon points="220.0,420.0 293.5,375.9 703.5,375.9 630.0,420.0" fill="#647e90" fill-opacity="1" stroke="#8ffaff" stroke-opacity=".75" stroke-width="1.25" stroke-linejoin="round"/><polygon points="630.0,420.0 703.5,375.9 703.5,413.9 630.0,458.0" fill="#263f55" fill-opacity="1" stroke="#8ffaff" stroke-opacity=".75" stroke-width="1.25" stroke-linejoin="round"/><polygon points="220.0,420.0 630.0,420.0 630.0,458.0 220.0,458.0" fill="#152d42" fill-opacity="1" stroke="#8ffaff" stroke-opacity=".75" stroke-width="1.25" stroke-linejoin="round"/><polygon points="215.0,403.0 292.0,356.8 717.0,356.8 640.0,403.0" fill="#e0c995" fill-opacity="1" stroke="#8ffaff" stroke-opacity=".75" stroke-width="1.25" stroke-linejoin="round"/><polygon points="640.0,403.0 717.0,356.8 717.0,371.8 640.0,418.0" fill="#9a855c" fill-opacity="1" stroke="#8ffaff" stroke-opacity=".75" stroke-width="1.25" stroke-linejoin="round"/><polygon points="215.0,403.0 640.0,403.0 640.0,418.0 215.0,418.0" fill="#615840" fill-opacity="1" stroke="#8ffaff" stroke-opacity=".75" stroke-width="1.25" stroke-linejoin="round"/><polygon points="210.0,390.0 288.4,343.0 728.4,343.0 650.0,390.0" fill="#3ce5e9" fill-opacity="1" stroke="#8ffaff" stroke-opacity=".75" stroke-width="1.25" stroke-linejoin="round"/><polygon points="650.0,390.0 728.4,343.0 728.4,353.0 650.0,400.0" fill="#157c91" fill-opacity="1" stroke="#8ffaff" stroke-opacity=".75" stroke-width="1.25" stroke-linejoin="round"/><polygon points="210.0,390.0 650.0,390.0 650.0,400.0 210.0,400.0" fill="#12445a" fill-opacity="1" stroke="#8ffaff" stroke-opacity=".75" stroke-width="1.25" stroke-linejoin="round"/><polygon points="220.0,265.0 293.5,220.9 633.5,220.9 560.0,265.0" fill="#cda87a" fill-opacity="1" stroke="#8ffaff" stroke-opacity=".75" stroke-width="1.25" stroke-linejoin="round"/><polygon points="560.0,265.0 633.5,220.9 633.5,238.9 560.0,283.0" fill="#795a45" fill-opacity="1" stroke="#8ffaff" stroke-opacity=".75" stroke-width="1.25" stroke-linejoin="round"/><polygon points="220.0,265.0 560.0,265.0 560.0,283.0 220.0,283.0" fill="#4c3b36" fill-opacity="1" stroke="#8ffaff" stroke-opacity=".75" stroke-width="1.25" stroke-linejoin="round"/><polygon points="220.0,249.0 293.5,204.9 648.5,204.9 575.0,249.0" fill="#ddd5bd" fill-opacity="1" stroke="#8ffaff" stroke-opacity=".75" stroke-width="1.25" stroke-linejoin="round"/><polygon points="575.0,249.0 648.5,204.9 648.5,216.9 575.0,261.0" fill="#958c7a" fill-opacity="1" stroke="#8ffaff" stroke-opacity=".75" stroke-width="1.25" stroke-linejoin="round"/><polygon points="220.0,249.0 575.0,249.0 575.0,261.0 220.0,261.0" fill="#625d54" fill-opacity="1" stroke="#8ffaff" stroke-opacity=".75" stroke-width="1.25" stroke-linejoin="round"/><polygon points="560.0,272.0 612.5,240.5 646.5,240.5 594.0,272.0" fill="#b7dce9" fill-opacity="1" stroke="#8ffaff" stroke-opacity=".75" stroke-width="1.25" stroke-linejoin="round"/><polygon points="594.0,272.0 646.5,240.5 646.5,310.5 594.0,342.0" fill="#5e8da1" fill-opacity="1" stroke="#8ffaff" stroke-opacity=".75" stroke-width="1.25" stroke-linejoin="round"/><polygon points="560.0,272.0 594.0,272.0 594.0,342.0 560.0,342.0" fill="#315c70" fill-opacity="1" stroke="#8ffaff" stroke-opacity=".75" stroke-width="1.25" stroke-linejoin="round"/><ellipse cx="445" cy="536" rx="275" ry="38" fill="#00d5f5" opacity=".07"/><path d="M155 525 L740 525 M155 525 L155 130" stroke="#2f9fb8" stroke-dasharray="6 12" opacity=".35" fill="none"/></g><g><polygon points="220.0,420.0 293.5,375.9 703.5,375.9 630.0,420.0" fill="#647e90" fill-opacity="1" stroke="#8ffaff" stroke-opacity=".75" stroke-width="1.25" stroke-linejoin="round"/><polygon points="630.0,420.0 703.5,375.9 703.5,413.9 630.0,458.0" fill="#263f55" fill-opacity="1" stroke="#8ffaff" stroke-opacity=".75" stroke-width="1.25" stroke-linejoin="round"/><polygon points="220.0,420.0 630.0,420.0 630.0,458.0 220.0,458.0" fill="#152d42" fill-opacity="1" stroke="#8ffaff" stroke-opacity=".75" stroke-width="1.25" stroke-linejoin="round"/><polygon points="215.0,403.0 292.0,356.8 717.0,356.8 640.0,403.0" fill="#e0c995" fill-opacity="1" stroke="#8ffaff" stroke-opacity=".75" stroke-width="1.25" stroke-linejoin="round"/><polygon points="640.0,403.0 717.0,356.8 717.0,371.8 640.0,418.0" fill="#9a855c" fill-opacity="1" stroke="#8ffaff" stroke-opacity=".75" stroke-width="1.25" stroke-linejoin="round"/><polygon points="215.0,403.0 640.0,403.0 640.0,418.0 215.0,418.0" fill="#615840" fill-opacity="1" stroke="#8ffaff" stroke-opacity=".75" stroke-width="1.25" stroke-linejoin="round"/><polygon points="210.0,390.0 288.4,343.0 728.4,343.0 650.0,390.0" fill="#3ce5e9" fill-opacity="1" stroke="#8ffaff" stroke-opacity=".75" stroke-width="1.25" stroke-linejoin="round"/><polygon points="650.0,390.0 728.4,343.0 728.4,353.0 650.0,400.0" fill="#157c91" fill-opacity="1" stroke="#8ffaff" stroke-opacity=".75" stroke-width="1.25" stroke-linejoin="round"/><polygon points="210.0,390.0 650.0,390.0 650.0,400.0 210.0,400.0" fill="#12445a" fill-opacity="1" stroke="#8ffaff" stroke-opacity=".75" stroke-width="1.25" stroke-linejoin="round"/><polygon points="220.0,265.0 293.5,220.9 633.5,220.9 560.0,265.0" fill="#cda87a" fill-opacity="1" stroke="#8ffaff" stroke-opacity=".75" stroke-width="1.25" stroke-linejoin="round"/><polygon points="560.0,265.0 633.5,220.9 633.5,238.9 560.0,283.0" fill="#795a45" fill-opacity="1" stroke="#8ffaff" stroke-opacity=".75" stroke-width="1.25" stroke-linejoin="round"/><polygon points="220.0,265.0 560.0,265.0 560.0,283.0 220.0,283.0" fill="#4c3b36" fill-opacity="1" stroke="#8ffaff" stroke-opacity=".75" stroke-width="1.25" stroke-linejoin="round"/><polygon points="220.0,249.0 293.5,204.9 648.5,204.9 575.0,249.0" fill="#ddd5bd" fill-opacity="1" stroke="#8ffaff" stroke-opacity=".75" stroke-width="1.25" stroke-linejoin="round"/><polygon points="575.0,249.0 648.5,204.9 648.5,216.9 575.0,261.0" fill="#958c7a" fill-opacity="1" stroke="#8ffaff" stroke-opacity=".75" stroke-width="1.25" stroke-linejoin="round"/><polygon points="220.0,249.0 575.0,249.0 575.0,261.0 220.0,261.0" fill="#625d54" fill-opacity="1" stroke="#8ffaff" stroke-opacity=".75" stroke-width="1.25" stroke-linejoin="round"/><polygon points="560.0,272.0 612.5,240.5 646.5,240.5 594.0,272.0" fill="#b7dce9" fill-opacity="1" stroke="#8ffaff" stroke-opacity=".75" stroke-width="1.25" stroke-linejoin="round"/><polygon points="594.0,272.0 646.5,240.5 646.5,310.5 594.0,342.0" fill="#5e8da1" fill-opacity="1" stroke="#8ffaff" stroke-opacity=".75" stroke-width="1.25" stroke-linejoin="round"/><polygon points="560.0,272.0 594.0,272.0 594.0,342.0 560.0,342.0" fill="#315c70" fill-opacity="1" stroke="#8ffaff" stroke-opacity=".75" stroke-width="1.25" stroke-linejoin="round"/><ellipse cx="445" cy="536" rx="275" ry="38" fill="#00d5f5" opacity=".07"/><path d="M155 525 L740 525 M155 525 L155 130" stroke="#2f9fb8" stroke-dasharray="6 12" opacity=".35" fill="none"/></g><text x="745" y="554" fill="#63e9f8" font-family="Arial" font-size="18" font-weight="bold">ASSEMBLY COMPONENTS</text><circle cx="466.0" cy="437.1" r="3.5" fill="#a1f9ff"/><line x1="466.0" y1="437.1" x2="735" y2="590" stroke="#42cddd" stroke-width="1.4" /><text x="748" y="595" fill="#e2faff" font-size="17" font-family="Arial">Roof deck / substrate</text><circle cx="470.0" cy="409.75" r="3.5" fill="#a1f9ff"/><line x1="470.0" y1="409.75" x2="735" y2="623" stroke="#42cddd" stroke-width="1.4" /><text x="748" y="628" fill="#e2faff" font-size="17" font-family="Arial">Thermal insulation</text><circle cx="474.0" cy="394.5" r="3.5" fill="#a1f9ff"/><line x1="474.0" y1="394.5" x2="735" y2="656" stroke="#42cddd" stroke-width="1.4" /><text x="748" y="661" fill="#e2faff" font-size="17" font-family="Arial">Waterproofing / roof finish</text><circle cx="424.0" cy="273.1" r="3.5" fill="#a1f9ff"/><line x1="424.0" y1="273.1" x2="735" y2="689" stroke="#42cddd" stroke-width="1.4" /><text x="748" y="694" fill="#e2faff" font-size="17" font-family="Arial">Sloped roof framing</text><circle cx="433.0" cy="254.4" r="3.5" fill="#a1f9ff"/><line x1="433.0" y1="254.4" x2="735" y2="722" stroke="#42cddd" stroke-width="1.4" /><text x="748" y="727" fill="#e2faff" font-size="17" font-family="Arial">Shingle / roofing layer</text><circle cx="580.4" cy="303.5" r="3.5" fill="#a1f9ff"/><line x1="580.4" y1="303.5" x2="735" y2="755" stroke="#42cddd" stroke-width="1.4" /><text x="748" y="760" fill="#e2faff" font-size="17" font-family="Arial">Gutter and fascia</text><text x="55" y="776" fill="#95c5d5" font-family="Arial" font-size="16">Educational visualization. Verify actual project dimensions, connections and materials against the 2D construction documents.</text><text x="55" y="803" fill="#537b91" font-family="Arial" font-size="13">Roofs  •  DrawUp Details library  •  Diagrammatic 3D proportions</text></svg>