<svg xmlns="http://www.w3.org/2000/svg" viewBox="0 0 1200 820" width="1200" height="820"><defs><radialGradient id="bg"><stop stop-color="#123d58"/><stop offset="1" stop-color="#071522"/></radialGradient><filter id="glow"><feGaussianBlur stdDeviation="4" result="b"/><feMerge><feMergeNode in="b"/><feMergeNode in="SourceGraphic"/></feMerge></filter></defs><rect width="1200" height="820" fill="url(#bg)"/><g opacity=".13" stroke="#4cdfff" stroke-width=".6"><line x1="0" y1="0" x2="0" y2="820" stroke="#82f7ff" stroke-width="1.4" /><line x1="50" y1="0" x2="50" y2="820" stroke="#82f7ff" stroke-width="1.4" /><line x1="100" y1="0" x2="100" y2="820" stroke="#82f7ff" stroke-width="1.4" /><line x1="150" y1="0" x2="150" y2="820" stroke="#82f7ff" stroke-width="1.4" /><line x1="200" y1="0" x2="200" y2="820" stroke="#82f7ff" stroke-width="1.4" /><line x1="250" y1="0" x2="250" y2="820" stroke="#82f7ff" stroke-width="1.4" /><line x1="300" y1="0" x2="300" y2="820" stroke="#82f7ff" stroke-width="1.4" /><line x1="350" y1="0" x2="350" y2="820" stroke="#82f7ff" stroke-width="1.4" /><line x1="400" y1="0" x2="400" y2="820" stroke="#82f7ff" stroke-width="1.4" /><line x1="450" y1="0" x2="450" y2="820" stroke="#82f7ff" stroke-width="1.4" /><line x1="500" y1="0" x2="500" y2="820" stroke="#82f7ff" stroke-width="1.4" /><line x1="550" y1="0" x2="550" y2="820" stroke="#82f7ff" stroke-width="1.4" /><line x1="600" y1="0" x2="600" y2="820" stroke="#82f7ff" stroke-width="1.4" /><line x1="650" y1="0" x2="650" y2="820" stroke="#82f7ff" stroke-width="1.4" /><line x1="700" y1="0" x2="700" y2="820" stroke="#82f7ff" stroke-width="1.4" /><line x1="750" y1="0" x2="750" y2="820" stroke="#82f7ff" stroke-width="1.4" /><line x1="800" y1="0" x2="800" y2="820" stroke="#82f7ff" stroke-width="1.4" /><line x1="850" y1="0" x2="850" y2="820" stroke="#82f7ff" stroke-width="1.4" /><line x1="900" y1="0" x2="900" y2="820" stroke="#82f7ff" stroke-width="1.4" /><line x1="950" y1="0" x2="950" y2="820" stroke="#82f7ff" stroke-width="1.4" /><line x1="1000" y1="0" x2="1000" y2="820" stroke="#82f7ff" stroke-width="1.4" /><line x1="1050" y1="0" x2="1050" y2="820" stroke="#82f7ff" stroke-width="1.4" /><line x1="1100" y1="0" x2="1100" y2="820" stroke="#82f7ff" stroke-width="1.4" /><line x1="1150" y1="0" x2="1150" y2="820" stroke="#82f7ff" stroke-width="1.4" /><line x1="1200" y1="0" x2="1200" y2="820" stroke="#82f7ff" stroke-width="1.4" /><line x1="0" y1="0" x2="1200" y2="0" stroke="#82f7ff" stroke-width="1.4" /><line x1="0" y1="50" x2="1200" y2="50" stroke="#82f7ff" stroke-width="1.4" /><line x1="0" y1="100" x2="1200" y2="100" stroke="#82f7ff" stroke-width="1.4" /><line x1="0" y1="150" x2="1200" y2="150" stroke="#82f7ff" stroke-width="1.4" /><line x1="0" y1="200" x2="1200" y2="200" stroke="#82f7ff" stroke-width="1.4" /><line x1="0" y1="250" x2="1200" y2="250" stroke="#82f7ff" stroke-width="1.4" /><line x1="0" y1="300" x2="1200" y2="300" stroke="#82f7ff" stroke-width="1.4" /><line x1="0" y1="350" x2="1200" y2="350" stroke="#82f7ff" stroke-width="1.4" /><line x1="0" y1="400" x2="1200" y2="400" stroke="#82f7ff" stroke-width="1.4" /><line x1="0" y1="450" x2="1200" y2="450" stroke="#82f7ff" stroke-width="1.4" /><line x1="0" y1="500" x2="1200" y2="500" stroke="#82f7ff" stroke-width="1.4" /><line x1="0" y1="550" x2="1200" y2="550" stroke="#82f7ff" stroke-width="1.4" /><line x1="0" y1="600" x2="1200" y2="600" stroke="#82f7ff" stroke-width="1.4" /><line x1="0" y1="650" x2="1200" y2="650" stroke="#82f7ff" stroke-width="1.4" /><line x1="0" y1="700" x2="1200" y2="700" stroke="#82f7ff" stroke-width="1.4" /><line x1="0" y1="750" x2="1200" y2="750" stroke="#82f7ff" stroke-width="1.4" /><line x1="0" y1="800" x2="1200" y2="800" stroke="#82f7ff" stroke-width="1.4" /></g><text x="54" y="62" fill="#80efff" font-family="Arial" font-size="24" font-weight="bold">DRAWUP 3D / SL-01</text><text x="54" y="98" fill="#f0fbff" font-family="Arial" font-size="23">Slab on Grade with Vapor Retarder + Control Joint</text><text x="54" y="129" fill="#83adbe" font-family="Arial" font-size="16">ILLUSTRATIVE AXONOMETRIC · NOT TO SCALE · NOT FOR CONSTRUCTION</text><g filter="url(#glow)" opacity=".16"><polygon points="190.0,440.0 267.0,393.8 737.0,393.8 660.0,440.0" fill="#917b67" fill-opacity="1" stroke="#8ffaff" stroke-opacity=".75" stroke-width="1.25" stroke-linejoin="round"/><polygon points="660.0,440.0 737.0,393.8 737.0,471.8 660.0,518.0" fill="#5b5147" fill-opacity="1" stroke="#8ffaff" stroke-opacity=".75" stroke-width="1.25" stroke-linejoin="round"/><polygon points="190.0,440.0 660.0,440.0 660.0,518.0 190.0,518.0" fill="#383b3d" fill-opacity="1" stroke="#8ffaff" stroke-opacity=".75" stroke-width="1.25" stroke-linejoin="round"/><polygon points="200.0,390.0 277.0,343.8 727.0,343.8 650.0,390.0" fill="#647e90" fill-opacity="1" stroke="#8ffaff" stroke-opacity=".75" stroke-width="1.25" stroke-linejoin="round"/><polygon points="650.0,390.0 727.0,343.8 727.0,398.8 650.0,445.0" fill="#263f55" fill-opacity="1" stroke="#8ffaff" stroke-opacity=".75" stroke-width="1.25" stroke-linejoin="round"/><polygon points="200.0,390.0 650.0,390.0 650.0,445.0 200.0,445.0" fill="#152d42" fill-opacity="1" stroke="#8ffaff" stroke-opacity=".75" stroke-width="1.25" stroke-linejoin="round"/><polygon points="200.0,378.0 277.0,331.8 727.0,331.8 650.0,378.0" fill="#3ce5e9" fill-opacity="1" stroke="#8ffaff" stroke-opacity=".75" stroke-width="1.25" stroke-linejoin="round"/><polygon points="650.0,378.0 727.0,331.8 727.0,341.8 650.0,388.0" fill="#157c91" fill-opacity="1" stroke="#8ffaff" stroke-opacity=".75" stroke-width="1.25" stroke-linejoin="round"/><polygon points="200.0,378.0 650.0,378.0 650.0,388.0 200.0,388.0" fill="#12445a" fill-opacity="1" stroke="#8ffaff" stroke-opacity=".75" stroke-width="1.25" stroke-linejoin="round"/><polygon points="414.0,383.0 487.5,338.9 497.5,338.9 424.0,383.0" fill="#82b6cb" fill-opacity="1" stroke="#8ffaff" stroke-opacity=".75" stroke-width="1.25" stroke-linejoin="round"/><polygon points="424.0,383.0 497.5,338.9 497.5,395.9 424.0,440.0" fill="#3b657a" fill-opacity="1" stroke="#8ffaff" stroke-opacity=".75" stroke-width="1.25" stroke-linejoin="round"/><polygon points="414.0,383.0 424.0,383.0 424.0,440.0 414.0,440.0" fill="#254557" fill-opacity="1" stroke="#8ffaff" stroke-opacity=".75" stroke-width="1.25" stroke-linejoin="round"/><ellipse cx="445" cy="536" rx="275" ry="38" fill="#00d5f5" opacity=".07"/><path d="M155 525 L740 525 M155 525 L155 130" stroke="#2f9fb8" stroke-dasharray="6 12" opacity=".35" fill="none"/></g><g><polygon points="190.0,440.0 267.0,393.8 737.0,393.8 660.0,440.0" fill="#917b67" fill-opacity="1" stroke="#8ffaff" stroke-opacity=".75" stroke-width="1.25" stroke-linejoin="round"/><polygon points="660.0,440.0 737.0,393.8 737.0,471.8 660.0,518.0" fill="#5b5147" fill-opacity="1" stroke="#8ffaff" stroke-opacity=".75" stroke-width="1.25" stroke-linejoin="round"/><polygon points="190.0,440.0 660.0,440.0 660.0,518.0 190.0,518.0" fill="#383b3d" fill-opacity="1" stroke="#8ffaff" stroke-opacity=".75" stroke-width="1.25" stroke-linejoin="round"/><polygon points="200.0,390.0 277.0,343.8 727.0,343.8 650.0,390.0" fill="#647e90" fill-opacity="1" stroke="#8ffaff" stroke-opacity=".75" stroke-width="1.25" stroke-linejoin="round"/><polygon points="650.0,390.0 727.0,343.8 727.0,398.8 650.0,445.0" fill="#263f55" fill-opacity="1" stroke="#8ffaff" stroke-opacity=".75" stroke-width="1.25" stroke-linejoin="round"/><polygon points="200.0,390.0 650.0,390.0 650.0,445.0 200.0,445.0" fill="#152d42" fill-opacity="1" stroke="#8ffaff" stroke-opacity=".75" stroke-width="1.25" stroke-linejoin="round"/><polygon points="200.0,378.0 277.0,331.8 727.0,331.8 650.0,378.0" fill="#3ce5e9" fill-opacity="1" stroke="#8ffaff" stroke-opacity=".75" stroke-width="1.25" stroke-linejoin="round"/><polygon points="650.0,378.0 727.0,331.8 727.0,341.8 650.0,388.0" fill="#157c91" fill-opacity="1" stroke="#8ffaff" stroke-opacity=".75" stroke-width="1.25" stroke-linejoin="round"/><polygon points="200.0,378.0 650.0,378.0 650.0,388.0 200.0,388.0" fill="#12445a" fill-opacity="1" stroke="#8ffaff" stroke-opacity=".75" stroke-width="1.25" stroke-linejoin="round"/><polygon points="414.0,383.0 487.5,338.9 497.5,338.9 424.0,383.0" fill="#82b6cb" fill-opacity="1" stroke="#8ffaff" stroke-opacity=".75" stroke-width="1.25" stroke-linejoin="round"/><polygon points="424.0,383.0 497.5,338.9 497.5,395.9 424.0,440.0" fill="#3b657a" fill-opacity="1" stroke="#8ffaff" stroke-opacity=".75" stroke-width="1.25" stroke-linejoin="round"/><polygon points="414.0,383.0 424.0,383.0 424.0,440.0 414.0,440.0" fill="#254557" fill-opacity="1" stroke="#8ffaff" stroke-opacity=".75" stroke-width="1.25" stroke-linejoin="round"/><ellipse cx="445" cy="536" rx="275" ry="38" fill="#00d5f5" opacity=".07"/><path d="M155 525 L740 525 M155 525 L155 130" stroke="#2f9fb8" stroke-dasharray="6 12" opacity=".35" fill="none"/></g><text x="745" y="554" fill="#63e9f8" font-family="Arial" font-size="18" font-weight="bold">ASSEMBLY COMPONENTS</text><circle cx="472.0" cy="475.1" r="3.5" fill="#a1f9ff"/><line x1="472.0" y1="475.1" x2="735" y2="590" stroke="#42cddd" stroke-width="1.4" /><text x="748" y="595" fill="#e2faff" font-size="17" font-family="Arial">Subgrade / compacted base</text><circle cx="470.0" cy="414.75" r="3.5" fill="#a1f9ff"/><line x1="470.0" y1="414.75" x2="735" y2="623" stroke="#42cddd" stroke-width="1.4" /><text x="748" y="628" fill="#e2faff" font-size="17" font-family="Arial">Concrete foundation / slab</text><circle cx="470.0" cy="382.5" r="3.5" fill="#a1f9ff"/><line x1="470.0" y1="382.5" x2="735" y2="656" stroke="#42cddd" stroke-width="1.4" /><text x="748" y="661" fill="#e2faff" font-size="17" font-family="Arial">Vapor retarder</text><circle cx="420.0" cy="408.65" r="3.5" fill="#a1f9ff"/><line x1="420.0" y1="408.65" x2="735" y2="689" stroke="#42cddd" stroke-width="1.4" /><text x="748" y="694" fill="#e2faff" font-size="17" font-family="Arial">Control joint</text><text x="55" y="776" fill="#95c5d5" font-family="Arial" font-size="16">Educational visualization. Verify actual project dimensions, connections and materials against the 2D construction documents.</text><text x="55" y="803" fill="#537b91" font-family="Arial" font-size="13">Slabs  •  DrawUp Details library  •  Diagrammatic 3D proportions</text></svg>